<svg width="32" height="32" viewBox="0 0 32 32" fill="none" xmlns="http://www.w3.org/2000/svg">
<g opacity="0.4">
<path d="M20.7685 8.51416H11.2311C9.70874 8.51416 8.47021 9.75269 8.47021 11.275V20.8125C8.47021 22.3348 9.70874 23.5737 11.2311 23.5737H20.7685C22.2908 23.5737 23.5297 22.3351 23.5297 20.8125V11.275C23.5297 9.75269 22.2912 8.51416 20.7685 8.51416ZM15.9998 21.0014C13.2664 21.0014 11.0425 18.7775 11.0425 16.0437C11.0425 13.3103 13.2664 11.0864 15.9998 11.0864C18.7335 11.0864 20.9575 13.3103 20.9575 16.0437C20.9575 18.7771 18.7332 21.0014 15.9998 21.0014ZM21.1168 12.1114C20.4698 12.1114 19.9436 11.5852 19.9436 10.9385C19.9436 10.2917 20.4698 9.76553 21.1168 9.76553C21.7636 9.76553 22.2898 10.2917 22.2898 10.9385C22.2898 11.5852 21.7636 12.1114 21.1168 12.1114Z" fill="#424242"/>
<path d="M16.0003 13.1807C14.4223 13.1807 13.1375 14.4648 13.1375 16.0427C13.1375 17.6214 14.4223 18.9059 16.0003 18.9059C17.5789 18.9059 18.8627 17.6214 18.8627 16.0427C18.8627 14.4652 17.5785 13.1807 16.0003 13.1807Z" fill="#424242"/>
<path d="M16 0C7.1638 0 0 7.1638 0 16C0 24.8362 7.1638 32 16 32C24.8362 32 32 24.8362 32 16C32 7.1638 24.8362 0 16 0ZM25.6245 20.8119C25.6245 23.4896 23.4465 25.6676 20.7687 25.6676H11.2313C8.55384 25.6676 6.37554 23.4896 6.37554 20.8119V11.2744C6.37554 8.59698 8.55384 6.41868 11.2313 6.41868H20.7687C23.4465 6.41868 25.6245 8.59698 25.6245 11.2744V20.8119Z" fill="#424242"/>
</g>
</svg>
